GRFwalking.mot
version=1
nRows=17
nColumns=37
inDegrees=yes
endheader
time	ground_force_calcn_l_vx	ground_force_calcn_l_vy	ground_force_calcn_l_vz	ground_force_calcn_l_px	ground_force_calcn_l_py	ground_force_calcn_l_pz	ground_torque_calcn_l_vx	ground_torque_calcn_l_vy	ground_torque_calcn_l_vz	ground_force_calcn_r_vx	ground_force_calcn_r_vy	ground_force_calcn_r_vz	ground_force_calcn_r_px	ground_force_calcn_r_py	ground_force_calcn_r_pz	ground_torque_calcn_r_vx	ground_torque_calcn_r_vy	ground_torque_calcn_r_vz	ground_force_hand_l_vx	ground_force_hand_l_vy	ground_force_hand_l_vz	ground_force_hand_l_px	ground_force_hand_l_py	ground_force_hand_l_pz	ground_torque_hand_l_vx	ground_torque_hand_l_vy	ground_torque_hand_l_vz	ground_force_hand_r_vx	ground_force_hand_r_vy	ground_force_hand_r_vz	ground_force_hand_r_px	ground_force_hand_r_py	ground_force_hand_r_pz	ground_torque_hand_r_vx	ground_torque_hand_r_vy	ground_torque_hand_r_vz
 1.999978     -25.28572      310.8696      6.650421     0.8101642 -4.965646e-17    -0.3620916             0    -0.8113809             0      39.56452      498.6691     0.2719938      0.593836 -3.642919e-17     -0.200759             0    -0.7307714             0             0             0             0     0.6946294     0.7538629    -0.5658992             0             0             0             0             0             0     0.8018964     0.7634601   -0.04781686             0             0             0
 2.016645     -23.61175      317.4929      5.842042     0.8094319 -4.954804e-17    -0.3623213             0    -0.7484831             0      41.73293      489.3941      2.113968     0.5993248 -3.686287e-17    -0.2000179             0    -0.6814336             0             0             0             0     0.7046391     0.7539069    -0.5675343             0             0             0             0             0             0     0.8074807     0.7638529   -0.04916183             0             0             0
 2.033311     -22.35979      328.8437      5.426912     0.8085632 -4.949383e-17    -0.3625089             0    -0.7100214             0      43.66182      476.1351      3.501785     0.6037598 -3.686287e-17    -0.1992912             0    -0.6549047             0             0             0             0     0.7149582     0.7537379    -0.5691765             0             0             0             0             0             0     0.8131413     0.7640815   -0.05050851             0             0             0
 2.049978     -21.55773      346.5214        5.4969     0.8075841 -4.943962e-17    -0.3626547             0    -0.6989519             0      45.12439      457.5391      4.694785     0.6069957 -3.718813e-17    -0.1986386             0    -0.6530785             0             0             0             0     0.7255028     0.7533918    -0.5708819             0             0             0             0             0             0     0.8188224     0.7641607   -0.05184788             0             0             0
 2.066645     -21.12562      371.6055      6.084822     0.8065567 -4.943962e-17    -0.3627739             0    -0.7161719             0      45.82353      432.5566      5.986062     0.6100171 -3.735076e-17    -0.1980397             0    -0.6763944             0             0             0             0     0.7361938     0.7529981    -0.5726975             0             0             0             0             0             0     0.8244814     0.7641915   -0.05316974             0             0             0
 2.083311     -20.90029       404.516      7.162233      0.805544 -4.943962e-17     -0.362894             0    -0.7602689             0      45.43417      400.5876      7.641348     0.6123008  -3.75134e-17    -0.1977002             0    -0.7237692             0             0             0             0      0.746974     0.7527428    -0.5746567             0             0             0             0             0             0     0.8300975     0.7643279   -0.05446631             0             0             0
 2.099978     -20.67576      444.8989      8.642077     0.8045837 -4.943962e-17    -0.3630443             0     -0.827717             0      43.66769      361.6424      9.833033     0.6138895  -3.75134e-17    -0.1976649             0    -0.7926316             0             0             0             0     0.7578052     0.7528086    -0.5767747             0             0             0             0             0             0     0.8356632     0.7647214    -0.0557316             0             0             0
 2.116644     -20.25024       491.571      10.38535     0.8036792 -4.900594e-17    -0.3632408             0    -0.9133599             0      40.34514      316.4792       12.5879     0.6160482 -3.773024e-17    -0.1979172             0    -0.8789888             0             0             0             0     0.7686616     0.7533174    -0.5790449             0             0             0             0             0             0     0.8411722     0.7654688   -0.05695842             0             0             0
 2.133311      -19.4681      542.5582      12.21046       0.80281 -4.900594e-17    -0.3634759             0     -1.010899             0      35.46087       266.664      15.76786     0.6195109 -3.794708e-17    -0.1984294             0    -0.9774582             0             0             0             0     0.7795208     0.7542933    -0.5814374             0             0             0             0             0             0     0.8466056     0.7665791   -0.05813318             0             0             0
 2.149977     -18.24733        595.25      13.90513     0.8019508 -4.900594e-17    -0.3637144             0     -1.113157             0      29.21901      214.5033      19.09499     0.6225409 -3.810971e-17    -0.1989202             0      -1.08123             0             0             0             0     0.7903594     0.7556596    -0.5838996             0             0             0             0             0             0     0.8519283     0.7679729   -0.05923124             0             0             0
 2.166644     -16.58869      646.6715      15.24205     0.8010874 -4.900594e-17    -0.3638994             0     -1.212075             0      22.03091      162.8224      22.21797     0.6268352 -3.838076e-17    -0.1992975             0     -1.181991             0             0             0             0     0.8011535      0.757271    -0.5863601             0             0             0             0             0             0     0.8570925     0.7695138   -0.06021663             0             0             0
 2.183311     -14.56837      693.8396      15.99989       0.80022 -4.900594e-17    -0.3639662             0     -1.298572             0      14.47048      114.6027      24.80277     0.6312717  -3.85976e-17    -0.1992022             0      -1.26994             0             0             0             0     0.8118806     0.7589662    -0.5887358             0             0             0             0             0             0      0.862047     0.7710579   -0.06104786             0             0             0
 2.199977     -12.31929      734.1458      15.98892     0.7993597 -4.889752e-17    -0.3638569             0     -1.362536             0      7.193257      72.53942      26.62106     0.6364067 -3.903128e-17    -0.1979194             0     -1.334058             0             0             0             0     0.8225203     0.7606146    -0.5909428             0             0             0             0             0             0     0.8667436     0.7724967   -0.06168777             0             0             0
 2.216644     -10.00683       765.692      15.07845     0.7985292 -4.889752e-17    -0.3635331             0     -1.393184             0     0.8339398      38.61596      27.60936      0.644631 -3.989864e-17    -0.1959769             0     -1.362779             0             0             0             0      0.833057     0.7621385    -0.5929057             0             0             0             0             0             0     0.8711407     0.7737739   -0.06211282             0             0             0
  2.23331     -7.803814      787.5101      13.22186     0.7977736 -4.889752e-17    -0.3629814             0     -1.379947             0     -4.096112      13.80513      27.88044     0.6557966 -3.989864e-17    -0.1936076             0     -1.345109             0             0             0             0     0.8434831     0.7635074     -0.594565             0             0             0             0             0             0      0.875202     0.7748755   -0.06231843             0             0             0
 2.249977     -5.868177      799.6256      10.47529     0.7971674  -4.87891e-17    -0.3622143             0     -1.313851             0     -7.288249     -2.025646      27.68262     0.6661061 -4.163336e-17    -0.1892108             0     -1.272101             0             0             0             0     0.8538075     0.7647222    -0.5958809             0             0             0             0             0             0      0.878896     0.7758097    -0.0623203             0             0             0
 2.266644     -4.325296      802.9607      7.007485     0.7968036  -4.87891e-17    -0.3612694             0     -1.189174             0     -8.674915     -9.985962      27.31965     0.6791402 -4.163336e-17    -0.1843528             0      -1.13848             0             0             0             0     0.8640553     0.7658033    -0.5968332             0             0             0             0             0             0     0.8821938     0.7765943    -0.0621529             0             0             0
